<svg id="Layer_1" height="512" viewBox="0 0 128 128" width="512" xmlns="http://www.w3.org/2000/svg" data-name="Layer 1"><path d="m80.49 44.708 21.627-17.945a1.75 1.75 0 0 0 -1.117-3.1h-61.208v-2.642a5.771 5.771 0 1 0 -11.542 0v2.646h-1.25a1.75 1.75 0 0 0 -1.75 1.75v9a1.75 1.75 0 0 0 1.75 1.75h1.25v17.083h-1.25a1.75 1.75 0 0 0 -1.75 1.75v9a1.75 1.75 0 0 0 1.75 1.75h1.25v45.25a1.75 1.75 0 0 0 1.75 1.75h8.042a1.75 1.75 0 0 0 1.75-1.75v-45.25h61.208a1.75 1.75 0 0 0 1.117-3.1zm-48.74-23.687a2.271 2.271 0 1 1 4.542 0v2.646h-4.542zm0 15.146h4.542v17.083h-4.542zm10.25 0v17.083h-2.208v-17.083zm-5.708 73.083h-4.542v-43.5h4.542zm-7.542-47v-5.5h15a1.75 1.75 0 0 0 1.75-1.75v-20.583a1.75 1.75 0 0 0 -1.75-1.75h-15v-5.5h67.4l-19.518 16.2a1.749 1.749 0 0 0 0 2.693l19.518 16.19z"/></svg>